<svg width="127" height="110" viewBox="0 0 127 110" fill="none" xmlns="http://www.w3.org/2000/svg">
<path d="M42.9694 84.056H16.8112C15.6965 84.056 14.6276 83.6132 13.8394 82.825C13.0512 82.0369 12.6084 80.9679 12.6084 79.8532V8.4056H4.2028C3.08815 8.4056 2.01915 7.96281 1.23097 7.17463C0.442794 6.38645 0 5.31745 0 4.2028C0 3.08815 0.442794 2.01915 1.23097 1.23097C2.01915 0.442795 3.08815 0 4.2028 0H121.881C122.996 0 124.065 0.442795 124.853 1.23097C125.641 2.01915 126.084 3.08815 126.084 4.2028C126.084 5.31745 125.641 6.38645 124.853 7.17463C124.065 7.96281 122.996 8.4056 121.881 8.4056H113.476V79.8532C113.476 80.9679 113.033 82.0369 112.245 82.825C111.456 83.6132 110.387 84.056 109.273 84.056H83.165L97.7235 109.273H88.0234L73.4649 84.056H52.6695L38.111 109.273H28.4109L42.9694 84.056ZM105.07 8.4056H21.014V75.6504H105.07V8.4056ZM40.8008 53.4092C40.41 53.7999 39.9461 54.1099 39.4356 54.3214C38.925 54.5329 38.3778 54.6417 37.8252 54.6417C37.2726 54.6417 36.7254 54.5329 36.2148 54.3214C35.7043 54.1099 35.2404 53.7999 34.8496 53.4092C34.4589 53.0184 34.1489 52.5545 33.9374 52.044C33.7259 51.5334 33.6171 50.9862 33.6171 50.4336C33.6171 49.881 33.7259 49.3338 33.9374 48.8232C34.1489 48.3127 34.4589 47.8488 34.8496 47.458L54.2413 28.0747L70.7163 40.4309L84.9806 22.5943C85.3145 22.134 85.7383 21.7463 86.2264 21.4545C86.7144 21.1628 87.2566 20.9731 87.8201 20.897C88.3836 20.8209 88.9567 20.86 89.5046 21.0118C90.0526 21.1636 90.5641 21.425 91.0081 21.7802C91.4521 22.1354 91.8194 22.577 92.0878 23.0783C92.3562 23.5796 92.5201 24.1301 92.5695 24.6966C92.6189 25.263 92.5529 25.8336 92.3755 26.3738C92.198 26.914 91.9127 27.4126 91.537 27.8393L72.1873 52.0391L55.0315 39.1701L40.8008 53.4008V53.4092Z" fill="black"/>
</svg>
