<svg width="131" height="131" viewBox="0 0 131 131" fill="none" xmlns="http://www.w3.org/2000/svg">
<path d="M119.424 85.9622C110.812 83.9339 106.386 78.9499 102.72 73.4019C100.421 69.931 95.3717 70.1425 92.8769 73.4778C87.1825 81.0975 78.6679 87.1933 65.191 87.1933C51.5948 87.1933 43.0531 79.4326 37.3532 72.1328C34.967 69.0849 30.4114 69.1229 28.3234 72.3823C24.5163 78.3317 20.0908 83.8092 10.958 85.9622M119.424 113.079C110.812 111.05 106.386 106.066 102.72 100.518C100.421 97.0475 95.3717 97.259 92.8769 100.594C87.1825 108.214 78.6679 114.31 65.191 114.31C51.5948 114.31 43.0531 106.549 37.3532 99.2493C34.967 96.2014 30.4114 96.2394 28.3234 99.4988C24.5163 105.448 20.0908 110.926 10.958 113.079M21.8046 62.7885L40.6614 51.4755C41.6768 50.8665 42.5469 50.0433 43.2112 49.0633C43.8755 48.0832 44.3178 46.97 44.5073 45.8013C44.6968 44.6327 44.629 43.4367 44.3085 42.297C43.988 41.1572 43.4226 40.1012 42.6518 39.2025L37.2936 32.9603C35.9523 31.4177 35.2788 29.4054 35.4212 27.3662C35.5636 25.327 36.5102 23.4279 38.0528 22.0866C39.5954 20.7454 41.6077 20.0718 43.6469 20.2142C45.6861 20.3566 47.5853 21.3032 48.9265 22.8459L84.1726 62.7885M92.3075 43.8069C95.9034 43.8069 99.352 42.3785 101.895 39.8358C104.437 37.2931 105.866 33.8446 105.866 30.2487C105.866 26.6528 104.437 23.2042 101.895 20.6615C99.352 18.1189 95.9034 16.6904 92.3075 16.6904C88.7116 16.6904 85.263 18.1189 82.7204 20.6615C80.1777 23.2042 78.7493 26.6528 78.7493 30.2487C78.7493 33.8446 80.1777 37.2931 82.7204 39.8358C85.263 42.3785 88.7116 43.8069 92.3075 43.8069Z" stroke="black" stroke-width="8.13495" stroke-linecap="round" stroke-linejoin="round"/>
</svg>
